"The Completion Backwards Principle" album, in slickly produced music videos based on the group's stage shows back in the early 1980's. Great collection for Tubes fans! Ripped from a laser disk several yrs ago. Enjoy!

Format                                   : MPEG-4
Format profile                           : Base Media
Codec ID                                 : isom
File size                                : 365 MiB
Duration                                 : 45mn 42s
Overall bit rate mode                    : Variable
Overall bit rate                         : 1 116 Kbps
Encoded date                             : UTC 2010-10-31 20:54:48
Tagged date                              : UTC 2010-10-31 20:54:48
Writing application                      : Lavf51.12.1

Video
ID                                       : 1
Format                                   : AVC
Format/Info                              : Advanced Video Codec
Format profile                           : Baseline@L2.0
Format settings, CABAC                   : No
Format settings, ReFrames                : 1 frame
Format settings, GOP                     : M=1, N=12
Codec ID                                 : avc1
Codec ID/Info                            : Advanced Video Coding
Duration                                 : 45mn 42s
Bit rate mode                            : Variable
Bit rate                                 : 959 Kbps
Maximum bit rate                         : 1 152 Kbps
Width                                    : 320 pixels
Height                                   : 240 pixels
Display aspect ratio                     : 4:3
Frame rate mode                          : Constant
Frame rate                               : 29.970 fps
Original frame rate                      : 24.000 fps
Color space                              : YUV
Chroma subsampling                       : 4:2:0
Bit depth                                : 8 bits
Scan type                                : Progressive
Bits/(Pixel*Frame)                       : 0.417
Stream size                              : 314 MiB (86%)

Audio
ID                                       : 2
Format                                   : AAC
Format/Info                              : Advanced Audio Codec
Format profile                           : LC
Codec ID                                 : 40
Duration                                 : 45mn 42s
Bit rate mode                            : Variable
Bit rate                                 : 152 Kbps
Channel(s)                               : 2 channels
Channel positions                        : Front: L R
Sampling rate                            : 44.1 KHz
Compression mode                         : Lossy
Stream size                              : 49.7 MiB (14%)

